<svg width="701" height="701" viewBox="0 0 701 701" fill="none" xmlns="http://www.w3.org/2000/svg">
    <path d="M365.625 387.507C367.142 388.172 367.833 389.941 367.168 391.459C366.503 392.976 364.733 393.668 363.216 393.003C361.331 392.177 359.461 391.142 357.609 389.889L360.971 384.919C362.54 385.98 364.092 386.835 365.625 387.507ZM385.984 387.091C387.503 386.43 389.272 387.125 389.933 388.644C390.594 390.163 389.897 391.931 388.378 392.592C384.397 394.325 380.222 395.392 375.92 395.518C374.264 395.566 372.883 394.262 372.834 392.606C372.786 390.95 374.089 389.568 375.745 389.52C379.16 389.42 382.582 388.571 385.984 387.091ZM407.976 373.761C409.174 374.906 409.217 376.806 408.072 378.004C405.223 380.986 402.201 383.762 399.036 386.186C397.721 387.193 395.837 386.944 394.829 385.628C393.822 384.313 394.072 382.43 395.388 381.423C398.266 379.219 401.059 376.658 403.735 373.858C404.879 372.661 406.778 372.617 407.976 373.761ZM421.85 354.852C423.246 355.743 423.656 357.598 422.765 358.995C420.672 362.273 418.372 365.594 415.893 368.827C414.885 370.142 413.002 370.39 411.687 369.382C410.372 368.374 410.124 366.49 411.132 365.176C413.496 362.093 415.698 358.915 417.707 355.767C418.598 354.37 420.453 353.961 421.85 354.852ZM431.489 343.293C430.684 344.997 429.785 346.792 428.8 348.649C428.024 350.113 426.208 350.67 424.745 349.894C423.281 349.118 422.723 347.302 423.499 345.838C424.442 344.059 425.3 342.346 426.065 340.729L431.489 343.293Z" fill="white"/>
    <path d="M259.778 451.829C260.754 453.167 260.46 455.044 259.122 456.02L253.897 459.831L250.361 454.984L255.585 451.173C256.924 450.197 258.801 450.49 259.778 451.829ZM244.659 428.682C245.511 430.103 245.049 431.946 243.628 432.798L238.085 436.121L235 430.975L240.544 427.652C241.965 426.8 243.808 427.261 244.659 428.682ZM280.676 436.584C281.652 437.922 281.359 439.799 280.021 440.775L269.571 448.397C268.232 449.374 266.356 449.08 265.38 447.742C264.403 446.404 264.696 444.527 266.035 443.55L276.484 435.928C277.823 434.952 279.699 435.245 280.676 436.584ZM266.834 415.391C267.685 416.812 267.224 418.655 265.802 419.507L254.716 426.152C253.295 427.004 251.452 426.543 250.6 425.122C249.749 423.701 250.21 421.858 251.631 421.006L262.718 414.361C264.139 413.509 265.982 413.97 266.834 415.391ZM289.008 402.1C289.86 403.521 289.398 405.363 287.977 406.215L276.89 412.861C275.469 413.713 273.627 413.252 272.775 411.831C271.923 410.41 272.385 408.567 273.806 407.715L284.892 401.07C286.313 400.218 288.156 400.679 289.008 402.1ZM301.574 421.339C302.55 422.678 302.257 424.554 300.918 425.53L290.469 433.153C289.131 434.13 287.254 433.836 286.277 432.497C285.301 431.159 285.595 429.282 286.933 428.306L297.382 420.683C298.721 419.707 300.597 420.001 301.574 421.339ZM310.445 384.466C311.81 385.406 312.154 387.274 311.214 388.639C309.24 391.504 307.118 393.998 305.11 395.869L304.879 396.085L304.608 396.247L299.064 399.57C297.643 400.422 295.801 399.96 294.949 398.54C294.097 397.119 294.559 395.276 295.98 394.424L301.23 391.276C302.809 389.77 304.574 387.7 306.273 385.234C307.213 383.87 309.081 383.526 310.445 384.466ZM322.71 406.818C324.348 406.569 325.877 407.695 326.127 409.332C326.376 410.97 325.25 412.5 323.612 412.749C320.919 413.159 318.388 413.716 316.187 414.392L311.368 417.908C310.03 418.885 308.152 418.591 307.176 417.253C306.199 415.914 306.493 414.038 307.832 413.061L313.056 409.25L313.446 408.965L313.906 408.818C316.578 407.959 319.593 407.292 322.71 406.818ZM354.007 410.147C355.563 410.716 356.363 412.439 355.795 413.995C355.226 415.551 353.503 416.351 351.947 415.783C350.259 415.166 348.687 414.529 347.28 413.885C345.608 413.119 343.082 412.53 339.928 412.211C338.28 412.044 337.079 410.573 337.246 408.924C337.412 407.276 338.884 406.074 340.532 406.241C343.982 406.59 347.249 407.271 349.777 408.428C351.015 408.995 352.437 409.573 354.007 410.147ZM316.195 354.507C317.852 354.489 319.209 355.817 319.228 357.474C319.244 358.926 319.335 360.376 319.512 361.814C319.912 365.068 319.632 368.389 318.924 371.597C318.566 373.215 316.964 374.237 315.346 373.879C313.729 373.522 312.707 371.92 313.064 370.303C313.661 367.604 313.856 364.982 313.557 362.546C313.351 360.873 313.246 359.2 313.228 357.539C313.21 355.883 314.538 354.525 316.195 354.507ZM320.366 336.282C321.933 336.82 322.767 338.527 322.229 340.094C321.299 342.801 320.517 345.704 319.984 348.706C319.695 350.337 318.138 351.425 316.506 351.135C314.875 350.846 313.788 349.289 314.077 347.658C314.669 344.321 315.535 341.117 316.555 338.146C317.093 336.579 318.799 335.744 320.366 336.282ZM372.06 414.879C373.693 415.159 374.79 416.71 374.51 418.343C374.23 419.976 372.679 421.072 371.046 420.792C367.797 420.235 364.526 419.519 361.403 418.705C359.8 418.287 358.838 416.649 359.256 415.045C359.674 413.442 361.313 412.481 362.916 412.898C365.886 413.672 368.99 414.352 372.06 414.879ZM332.477 320.038C333.568 321.286 333.44 323.182 332.193 324.272C330.525 325.73 329.059 327.108 327.819 328.37C327.143 329.404 326.439 330.592 325.742 331.916C324.969 333.381 323.155 333.945 321.689 333.172C320.223 332.4 319.661 330.585 320.433 329.119C321.267 327.537 322.123 326.093 322.968 324.822L323.122 324.591L323.315 324.393C324.73 322.938 326.386 321.378 328.244 319.754C329.492 318.664 331.387 318.791 332.477 320.038ZM391.524 414.949C393.11 414.469 394.785 415.364 395.265 416.949C395.746 418.535 394.851 420.21 393.265 420.691C390.839 421.426 388.413 421.888 386.029 421.991C384.403 422.061 382.693 422.042 380.938 421.949C379.283 421.861 378.013 420.448 378.101 418.793C378.19 417.139 379.602 415.869 381.256 415.957C382.855 416.042 384.368 416.057 385.769 415.997C387.563 415.919 389.486 415.567 391.524 414.949ZM417.305 402.383C418.367 403.654 418.197 405.546 416.926 406.608C413.323 409.617 409.624 412.369 405.922 414.684C404.517 415.563 402.666 415.136 401.787 413.732C400.909 412.327 401.335 410.476 402.74 409.597C406.163 407.456 409.641 404.877 413.08 402.004C414.351 400.942 416.243 401.111 417.305 402.383ZM353.976 305.185C354.833 306.603 354.378 308.447 352.96 309.304C349.145 311.611 345.539 314.001 342.237 316.367C340.891 317.332 339.017 317.023 338.052 315.677C337.087 314.33 337.396 312.456 338.743 311.491C342.168 309.036 345.904 306.559 349.857 304.17C351.274 303.313 353.119 303.767 353.976 305.185ZM435.69 383.324C436.949 384.402 437.095 386.296 436.017 387.554C433.174 390.872 430.1 394.22 426.876 397.455C425.707 398.629 423.807 398.632 422.633 397.463C421.459 396.293 421.456 394.394 422.626 393.22C425.737 390.098 428.71 386.861 431.461 383.651C432.539 382.393 434.432 382.247 435.69 383.324ZM373.774 292.382C375.324 291.798 377.054 292.582 377.638 294.133C378.222 295.683 377.439 297.414 375.888 297.997C371.946 299.482 368.023 301.218 364.194 303.12C362.71 303.857 360.908 303.251 360.171 301.767C359.434 300.283 360.04 298.483 361.524 297.746C365.511 295.765 369.619 293.946 373.774 292.382ZM449.887 361.84C451.361 362.596 451.943 364.404 451.187 365.878C450.451 367.312 449.728 368.678 449.029 369.962L448.339 371.22L448.289 371.309L448.235 371.393C447.089 373.169 445.8 375.045 444.389 376.986C443.415 378.327 441.539 378.624 440.199 377.65C438.859 376.676 438.561 374.8 439.535 373.46C440.868 371.625 442.077 369.864 443.145 368.213C444.008 366.654 444.918 364.953 445.848 363.14C446.605 361.666 448.413 361.083 449.887 361.84ZM398.862 286.565C400.507 286.367 402.002 287.54 402.2 289.185C402.398 290.83 401.226 292.324 399.581 292.522C397.844 292.732 396.034 292.96 394.147 293.207C392.125 293.472 390.069 293.845 387.992 294.314C386.376 294.679 384.77 293.665 384.405 292.049C384.04 290.433 385.053 288.827 386.669 288.462C388.91 287.955 391.148 287.548 393.369 287.258C395.272 287.009 397.102 286.778 398.862 286.565ZM421.183 285.015C422.839 285.047 424.156 286.417 424.124 288.073C424.092 289.73 422.723 291.046 421.067 291.014C417.9 290.953 414.385 291.093 410.386 291.409C408.734 291.54 407.289 290.308 407.158 288.656C407.027 287.004 408.26 285.559 409.912 285.428C414.04 285.101 417.761 284.949 421.183 285.015ZM458.814 339.756C460.386 340.277 461.238 341.975 460.717 343.547C459.425 347.442 457.931 351.277 456.362 354.92C455.707 356.441 453.942 357.144 452.42 356.488C450.898 355.833 450.196 354.068 450.851 352.546C452.364 349.033 453.794 345.362 455.021 341.659C455.543 340.087 457.241 339.235 458.814 339.756ZM443.679 290.632C445.123 291.443 445.637 293.271 444.827 294.716C444.016 296.161 442.186 296.675 440.742 295.864C437.699 294.156 434.663 292.959 431.333 292.179C429.72 291.801 428.718 290.187 429.096 288.574C429.474 286.961 431.089 285.96 432.702 286.338C436.605 287.252 440.166 288.661 443.679 290.632ZM461.837 316.245C463.493 316.176 464.891 317.462 464.96 319.117C465.13 323.144 464.701 327.389 463.881 331.656C463.568 333.283 461.995 334.349 460.368 334.036C458.741 333.723 457.676 332.15 457.988 330.523C458.746 326.579 459.111 322.814 458.966 319.369C458.897 317.714 460.182 316.315 461.837 316.245ZM457.36 300.923C459.126 302.516 460.549 304.338 461.663 306.333C462.471 307.779 461.954 309.606 460.508 310.414C459.062 311.223 457.234 310.705 456.426 309.259C455.617 307.812 454.599 306.513 453.341 305.378C451.932 304.107 450.585 302.938 449.281 301.863C448.003 300.81 447.821 298.919 448.874 297.641C449.928 296.362 451.819 296.18 453.098 297.233C454.483 298.375 455.899 299.604 457.36 300.923Z" fill="white"/>
    <rect x="0.5" y="0.5" width="700" height="700" stroke="black" stroke-opacity="0"/>
</svg>
